<svg width="22" height="42" viewBox="0 0 22 42" fill="none" xmlns="http://www.w3.org/2000/svg">
<path d="M13.7706 1.42208C12.4563 2.65888 12.1277 4.59997 12.1277 5.41592C12.6754 5.41592 14.1244 5.1067 15.5398 3.86984C16.9552 2.63298 17.4775 0.777867 17.5618 0.00491857C16.8457 -0.0380259 15.0849 0.185285 13.7706 1.42208Z" fill="#3177F2"/>
<path d="M6.42853 4.88442C6.48171 6.70708 7.70298 8.23349 8.30697 8.76887C8.66628 8.34756 9.38817 7.02982 9.40128 5.12934C9.41438 3.22887 8.38389 1.60979 7.867 1.03781C7.36535 1.56057 6.37534 3.06177 6.42853 4.88442Z" fill="#3177F2"/>
<path d="M2.90947 11.3707C3.28099 13.1544 4.74995 14.434 5.43799 14.8508C5.71775 14.3709 6.19728 12.9429 5.87736 11.0707C5.55744 9.19838 4.25997 7.79291 3.65122 7.32421C3.24917 7.92987 2.53796 9.5871 2.90947 11.3707Z" fill="#3177F2"/>
<path d="M1.71775 19.8055C2.61699 21.3821 4.4043 22.1308 5.18554 22.3081C5.30427 21.7631 5.42582 19.9784 4.54844 18.3011C3.67106 16.6238 1.90467 15.9763 1.18286 15.7245C0.986474 16.4279 0.818512 18.2288 1.71775 19.8055Z" fill="#3177F2"/>
<path d="M2.4907 27.6593C3.73143 28.9727 5.64197 29.2665 6.44215 29.2492C6.43056 28.6911 6.13297 26.9281 4.89005 25.5117C3.64712 24.0953 1.78046 23.8947 1.02066 23.8252C0.993702 24.556 1.24997 26.3459 2.4907 27.6593Z" fill="#3177F2"/>
<path d="M11.35 26.9238C10.273 28.3796 8.41098 28.9053 7.61457 28.9862C7.56028 28.4307 7.64789 26.6441 8.71484 25.0857C9.78179 23.5273 11.6113 23.0995 12.3574 22.9374C12.4703 23.6596 12.4269 25.4679 11.35 26.9238Z" fill="#3177F2"/>
<path d="M8.84031 31.6143C10.5322 32.2057 11.6007 33.8469 11.9235 34.5936C11.4224 34.8187 9.72932 35.2887 7.94487 34.7387C6.16042 34.1888 5.19333 32.5488 4.81048 31.8761C5.44879 31.5424 7.14839 31.0229 8.84031 31.6143Z" fill="#3177F2"/>
<path d="M15.4535 30.3095C15.1369 32.1042 13.7079 33.43 13.033 33.8685C12.7386 33.3978 12.026 31.7631 12.2883 29.8815C12.5506 27.9999 13.9939 26.7765 14.5879 26.2886C15.0084 26.8812 15.7701 28.5149 15.4535 30.3095Z" fill="#3177F2"/>
<path d="M13.6277 36.4487C15.4157 36.493 16.9196 37.7298 17.448 38.3426C17.0367 38.7112 15.5611 39.6793 13.6971 39.703C11.833 39.7266 10.4262 38.4598 9.8624 37.936C10.3725 37.4217 11.8396 36.4043 13.6277 36.4487Z" fill="#3177F2"/>
<path d="M19.8457 33.2796C20.0104 35.0953 18.9803 36.7618 18.4446 37.3681C18.0377 36.9945 16.923 35.6129 16.6833 33.7282C16.4436 31.8435 17.5142 30.2718 17.959 29.6399C18.5193 30.0966 19.6811 31.4639 19.8457 33.2796Z" fill="#3177F2"/>
<path d="M13.2977 10.6093C15.0595 10.2947 16.3665 8.84397 16.7997 8.15793C16.3393 7.85571 14.9567 7.31597 13.1099 7.5748C11.2631 7.83363 9.83881 9.10513 9.35754 9.70853C9.93684 10.1399 11.5359 10.9238 13.2977 10.6093Z" fill="#3177F2"/>
<path d="M10.3457 15.7853C12.0385 15.1965 13.1095 13.557 13.4334 12.8109C12.9326 12.585 11.4847 12.2699 9.69945 12.8171C7.91418 13.3642 6.70014 14.8451 6.31628 15.5172C6.9541 15.8519 8.65292 16.3741 10.3457 15.7853Z" fill="#3177F2"/>
<path d="M10.5682 21.3586C11.9504 20.2013 12.3884 18.2828 12.4346 17.4682C11.8879 17.436 10.0778 17.5355 8.59474 18.6869C7.11165 19.8384 6.83097 21.7835 6.70307 22.5502C7.41555 22.6352 9.18606 22.516 10.5682 21.3586Z" fill="#3177F2"/>
</svg>
