<svg width="22" height="42" viewBox="0 0 22 42" fill="none" xmlns="http://www.w3.org/2000/svg">
<path d="M8.22955 1.42202C9.54381 2.65882 9.87238 4.59991 9.87238 5.41586C9.32477 5.41586 7.87571 5.10664 6.46035 3.86978C5.04498 2.63292 4.52265 0.777806 4.4384 0.00485754C5.15451 -0.0380869 6.91528 0.185224 8.22955 1.42202Z" fill="#3177F2"/>
<path d="M15.5716 4.88314C15.5184 6.7058 14.2972 8.23221 13.6932 8.76759C13.3339 8.34628 12.612 7.02854 12.5989 5.12806C12.5858 3.22758 13.6163 1.6085 14.1332 1.03652C14.6348 1.55929 15.6248 3.06048 15.5716 4.88314Z" fill="#3177F2"/>
<path d="M19.0905 11.3707C18.719 13.1544 17.25 14.4339 16.562 14.8508C16.2822 14.3708 15.8027 12.9429 16.1226 11.0706C16.4425 9.19835 17.74 7.79288 18.3487 7.32418C18.7508 7.92984 19.462 9.58707 19.0905 11.3707Z" fill="#3177F2"/>
<path d="M20.2824 19.8038C19.3832 21.3805 17.5959 22.1292 16.8146 22.3064C16.6959 21.7614 16.5744 19.9768 17.4517 18.2994C18.3291 16.6221 20.0955 15.9746 20.8173 15.7229C21.0137 16.4262 21.1816 18.2271 20.2824 19.8038Z" fill="#3177F2"/>
<path d="M19.5093 27.6593C18.2685 28.9727 16.358 29.2665 15.5578 29.2492C15.5694 28.691 15.867 26.9281 17.1099 25.5117C18.3528 24.0952 20.2195 23.8947 20.9793 23.8251C21.0062 24.5559 20.75 26.3459 19.5093 27.6593Z" fill="#3177F2"/>
<path d="M10.65 26.9238C11.7269 28.3796 13.589 28.9053 14.3854 28.9862C14.4397 28.4307 14.3521 26.6441 13.2851 25.0857C12.2182 23.5273 10.3887 23.0995 9.64262 22.9374C9.52971 23.6596 9.57312 25.4679 10.65 26.9238Z" fill="#3177F2"/>
<path d="M13.1597 31.6143C11.4678 32.2057 10.3993 33.8469 10.0765 34.5936C10.5776 34.8187 12.2707 35.2887 14.0551 34.7387C15.8396 34.1888 16.8066 32.5488 17.1895 31.8761C16.5512 31.5424 14.8516 31.0229 13.1597 31.6143Z" fill="#3177F2"/>
<path d="M6.54973 30.3095C6.86633 32.1041 8.29529 33.4299 8.9702 33.8685C9.26454 33.3977 9.97719 31.7631 9.71488 29.8815C9.45258 27.9999 8.00934 26.7765 7.41528 26.2886C6.99485 26.8812 6.23314 28.5149 6.54973 30.3095Z" fill="#3177F2"/>
<path d="M8.37234 36.4486C6.58428 36.493 5.08047 37.7298 4.55207 38.3426C4.96337 38.7112 6.4389 39.6793 8.30293 39.7029C10.167 39.7266 11.5737 38.4598 12.1376 37.9359C11.6275 37.4217 10.1604 36.4043 8.37234 36.4486Z" fill="#3177F2"/>
<path d="M2.15425 33.2796C1.98959 35.0953 3.01969 36.7618 3.55532 37.3681C3.96222 36.9944 5.07692 35.6129 5.31666 33.7282C5.5564 31.8434 4.48575 30.2717 4.04094 29.6399C3.48065 30.0966 2.31891 31.4639 2.15425 33.2796Z" fill="#3177F2"/>
<path d="M8.70231 10.6093C6.94053 10.2947 5.63355 8.84397 5.20029 8.15793C5.66072 7.85571 7.04328 7.31597 8.89009 7.5748C10.7369 7.83363 12.1611 9.10514 12.6424 9.70853C12.0631 10.1399 10.4641 10.9239 8.70231 10.6093Z" fill="#3177F2"/>
<path d="M11.6543 15.7853C9.9615 15.1965 8.89055 13.557 8.56667 12.8109C9.06744 12.585 10.5153 12.2699 12.3005 12.8171C14.0858 13.3642 15.2998 14.8451 15.6837 15.5172C15.0459 15.8519 13.3471 16.3741 11.6543 15.7853Z" fill="#3177F2"/>
<path d="M11.4319 21.3586C10.0498 20.2013 9.61177 18.2828 9.56554 17.4682C10.1122 17.4359 11.9223 17.5355 13.4053 18.6869C14.8884 19.8384 15.1691 21.7835 15.297 22.5501C14.5845 22.6352 12.814 22.5159 11.4319 21.3586Z" fill="#3177F2"/>
</svg>
