<svg width="25" height="24" viewBox="0 0 25 24" fill="none" xmlns="http://www.w3.org/2000/svg">
<path d="M21.12 8.45C20.07 3.83 16.04 1.75 12.5 1.75C12.5 1.75 12.5 1.75 12.49 1.75C8.95997 1.75 4.91997 3.82 3.86997 8.44C2.69997 13.6 5.85997 17.97 8.71997 20.72C9.77997 21.74 11.14 22.25 12.5 22.25C13.86 22.25 15.22 21.74 16.27 20.72C19.13 17.97 22.29 13.61 21.12 8.45ZM12.5 13.46C10.76 13.46 9.34997 12.05 9.34997 10.31C9.34997 8.57 10.76 7.16 12.5 7.16C14.24 7.16 15.65 8.57 15.65 10.31C15.65 12.05 14.24 13.46 12.5 13.46Z" fill="#3177F2"/>
</svg>
