<svg width="104" height="52" viewBox="0 0 104 52" fill="none" xmlns="http://www.w3.org/2000/svg">
<circle cx="52.4286" cy="26.204" r="25.204" fill="#3177F2"/>
<g clip-path="url(#clip0_0_2672)">
<path d="M57.7958 25.4831L57.4725 25.6453L56.822 26.9439C56.5715 27.4445 56.0718 27.7523 55.5147 27.7523C54.9575 27.7523 54.4578 27.4432 54.2073 26.9439L53.5569 25.6453L52.2547 24.9927C51.7563 24.745 51.4483 24.2457 51.4483 23.6864C51.4483 23.1271 51.7575 22.6303 52.2547 22.3826L53.5569 21.73L53.7192 21.407C53.3051 21.3061 52.8732 21.2525 52.4285 21.2525C49.3819 21.2525 46.9052 23.7285 46.9052 26.7715C46.9052 29.8146 49.3831 32.2906 52.4285 32.2906C55.4738 32.2906 57.9504 29.812 57.9504 26.7715C57.9504 26.3284 57.8993 25.8943 57.7958 25.4818V25.4831ZM57.7958 25.4831L57.4725 25.6453L56.822 26.9439C56.5715 27.4445 56.0718 27.7523 55.5147 27.7523C54.9575 27.7523 54.4578 27.4432 54.2073 26.9439L53.5569 25.6453L52.2547 24.9927C51.7563 24.745 51.4483 24.2457 51.4483 23.6864C51.4483 23.1271 51.7575 22.6303 52.2547 22.3826L53.5569 21.73L53.7192 21.407C53.3051 21.3061 52.8732 21.2525 52.4285 21.2525C49.3819 21.2525 46.9052 23.7285 46.9052 26.7715C46.9052 29.8146 49.3831 32.2906 52.4285 32.2906C55.4738 32.2906 57.9504 29.812 57.9504 26.7715C57.9504 26.3284 57.8993 25.8943 57.7958 25.4818V25.4831ZM58.7747 22.3826L57.4725 21.73L56.822 20.4288C56.5715 19.9308 56.0718 19.6218 55.5147 19.6218C55.1032 19.6218 54.7223 19.7903 54.4527 20.0802C54.3543 20.1836 54.2738 20.2986 54.2073 20.4288L53.7192 21.407C53.3051 21.3061 52.8732 21.2525 52.4285 21.2525C49.3819 21.2525 46.9052 23.7285 46.9052 26.7715C46.9052 29.8146 49.3831 32.2906 52.4285 32.2906C55.4738 32.2906 57.9504 29.812 57.9504 26.7715C57.9504 26.3284 57.8993 25.8943 57.7958 25.4818L58.7747 24.9914C58.905 24.925 59.0226 24.8446 59.1236 24.7488C59.4124 24.4794 59.5823 24.0988 59.5823 23.6851C59.5823 23.1283 59.2731 22.629 58.776 22.3813L58.7747 22.3826ZM58.3351 24.1154L57.4789 24.5445L56.8833 24.8408C56.7926 24.8867 56.7172 24.9633 56.6699 25.0566L55.9441 26.5072C55.8559 26.6834 55.6846 26.7715 55.5147 26.7715C55.3447 26.7715 55.1735 26.6834 55.0853 26.5072L54.3594 25.0566C54.3121 24.9633 54.2367 24.888 54.146 24.8408L52.6943 24.1154C52.3415 23.9392 52.3415 23.4361 52.6943 23.2573L54.146 22.5345C54.2367 22.4873 54.3121 22.412 54.3594 22.3187L54.6559 21.7237L55.0853 20.8681C55.1735 20.6919 55.346 20.6038 55.5147 20.6038C55.6834 20.6038 55.8559 20.6919 55.9441 20.8681L56.6699 22.3187C56.7172 22.412 56.7926 22.4873 56.8833 22.5345L58.3351 23.2573C58.6878 23.4361 58.6878 23.9392 58.3351 24.1154ZM57.7958 25.4831L57.4725 25.6453L56.822 26.9439C56.5715 27.4445 56.0718 27.7523 55.5147 27.7523C54.9575 27.7523 54.4578 27.4432 54.2073 26.9439L53.5569 25.6453L52.2547 24.9927C51.7563 24.745 51.4483 24.2457 51.4483 23.6864C51.4483 23.1271 51.7575 22.6303 52.2547 22.3826L53.5569 21.73L53.7192 21.407C53.3051 21.3061 52.8732 21.2525 52.4285 21.2525C49.3819 21.2525 46.9052 23.7285 46.9052 26.7715C46.9052 29.8146 49.3831 32.2906 52.4285 32.2906C55.4738 32.2906 57.9504 29.812 57.9504 26.7715C57.9504 26.3284 57.8993 25.8943 57.7958 25.4818V25.4831ZM57.7958 25.4831L57.4725 25.6453L56.822 26.9439C56.5715 27.4445 56.0718 27.7523 55.5147 27.7523C54.9575 27.7523 54.4578 27.4432 54.2073 26.9439L53.5569 25.6453L52.2547 24.9927C51.7563 24.745 51.4483 24.2457 51.4483 23.6864C51.4483 23.1271 51.7575 22.6303 52.2547 22.3826L53.5569 21.73L53.7192 21.407C53.3051 21.3061 52.8732 21.2525 52.4285 21.2525C49.3819 21.2525 46.9052 23.7285 46.9052 26.7715C46.9052 29.8146 49.3831 32.2906 52.4285 32.2906C55.4738 32.2906 57.9504 29.812 57.9504 26.7715C57.9504 26.3284 57.8993 25.8943 57.7958 25.4818V25.4831Z" fill="white"/>
<path d="M52.392 16.9682C44.5596 16.981 37.5718 20.9409 34.8932 26.7728C37.3584 32.1361 43.4631 35.9096 50.5083 36.4983H50.5237C51.1511 36.5493 51.7888 36.5762 52.4291 36.5762H52.4661C52.5173 36.5762 52.5645 36.5762 52.6157 36.5736H52.6502C60.4085 36.5021 67.3081 32.5537 69.9649 26.7716C67.2736 20.9141 60.2437 16.9555 52.392 16.9682ZM59.4219 26.7728C59.4219 30.6255 56.2846 33.763 52.4291 33.763C48.5735 33.763 45.4337 30.6255 45.4337 26.7728C45.4337 22.9202 48.571 19.7827 52.4291 19.7827C53.1332 19.7827 53.8131 19.8887 54.4521 20.0815C54.7217 19.7916 55.1025 19.6231 55.514 19.6231C56.0712 19.6231 56.5709 19.9321 56.8213 20.4301L57.4718 21.7313L58.774 22.3839C59.2724 22.6316 59.5804 23.1309 59.5804 23.6877C59.5804 24.1014 59.4117 24.4819 59.1216 24.7514C59.3159 25.3912 59.4207 26.0705 59.4207 26.7728H59.4219Z" fill="white"/>
<path d="M58.7742 22.3826L57.472 21.73L56.8215 20.4288C56.5711 19.9308 56.0714 19.6218 55.5142 19.6218C55.1027 19.6218 54.7219 19.7903 54.4522 20.0802C54.3538 20.1836 54.2733 20.2986 54.2069 20.4288L53.7187 21.407L53.5564 21.73L52.2542 22.3826C51.7558 22.6303 51.4478 23.1296 51.4478 23.6864C51.4478 24.2431 51.7571 24.745 52.2542 24.9927L53.5564 25.6452L54.2069 26.9439C54.4574 27.4445 54.957 27.7523 55.5142 27.7523C56.0714 27.7523 56.5711 27.4432 56.8215 26.9439L57.472 25.6452L57.7953 25.4831L58.7742 24.9927C58.9046 24.9263 59.0221 24.8459 59.1231 24.7501C59.4119 24.4806 59.5819 24.1001 59.5819 23.6864C59.5819 23.1296 59.2726 22.6303 58.7755 22.3826H58.7742ZM58.3346 24.1154L57.4784 24.5445L56.8829 24.8408C56.7921 24.8867 56.7167 24.9633 56.6695 25.0566L55.9436 26.5072C55.8554 26.6834 55.6842 26.7715 55.5142 26.7715C55.3442 26.7715 55.173 26.6834 55.0848 26.5072L54.359 25.0566C54.3117 24.9633 54.2363 24.888 54.1455 24.8408L52.6938 24.1154C52.3411 23.9392 52.3411 23.4361 52.6938 23.2573L54.1455 22.5345C54.2363 22.4873 54.3117 22.412 54.359 22.3187L54.6554 21.7237L55.0848 20.8681C55.173 20.6919 55.3455 20.6038 55.5142 20.6038C55.6829 20.6038 55.8554 20.6919 55.9436 20.8681L56.6695 22.3187C56.7167 22.412 56.7921 22.4873 56.8829 22.5345L58.3346 23.2573C58.6873 23.4361 58.6873 23.9392 58.3346 24.1154Z" fill="white"/>
</g>
<g clip-path="url(#clip1_0_2672)">
<path d="M99.5788 21.4207L103.721 23.6779L99.5788 25.9532L97.3125 30.0868L95.0462 25.9532L90.9035 23.6779L95.0462 21.4207L97.3125 17.2689L99.5788 21.4207Z" fill="#FF5D17" stroke="white" stroke-width="0.748118" stroke-miterlimit="10"/>
</g>
<g clip-path="url(#clip2_0_2672)">
<path d="M9.81117 21.4207L13.9539 23.6779L9.81117 25.9532L7.54492 30.0868L5.27867 25.9532L1.13596 23.6779L5.27867 21.4207L7.54492 17.2689L9.81117 21.4207Z" fill="#FF5D17" stroke="white" stroke-width="0.748118" stroke-miterlimit="10"/>
</g>
<defs>
<clipPath id="clip0_0_2672">
<rect width="35.0704" height="22.3853" fill="white" transform="translate(34.8932 16.9682)"/>
</clipPath>
<clipPath id="clip1_0_2672">
<rect width="9.25594" height="9.25594" fill="white" transform="translate(97.3125 17.142) rotate(45)"/>
</clipPath>
<clipPath id="clip2_0_2672">
<rect width="9.25594" height="9.25594" fill="white" transform="translate(7.54492 17.142) rotate(45)"/>
</clipPath>
</defs>
</svg>
