<svg width="104" height="52" viewBox="0 0 104 52" fill="none" xmlns="http://www.w3.org/2000/svg">
<g clip-path="url(#clip0_0_2685)">
<path d="M99.5788 23.9377L103.721 26.1949L99.5788 28.4702L97.3125 32.6039L95.0462 28.4702L90.9035 26.1949L95.0462 23.9377L97.3125 19.7859L99.5788 23.9377Z" fill="#FF5D17" stroke="white" stroke-width="0.748118" stroke-miterlimit="10"/>
</g>
<g clip-path="url(#clip1_0_2685)">
<path d="M9.81117 23.9377L13.9539 26.1949L9.81117 28.4702L7.54492 32.6039L5.27867 28.4702L1.13596 26.1949L5.27867 23.9377L7.54492 19.7859L9.81117 23.9377Z" fill="#FF5D17" stroke="white" stroke-width="0.748118" stroke-miterlimit="10"/>
</g>
<circle cx="52.4286" cy="26.204" r="25.204" fill="#3177F2"/>
<g clip-path="url(#clip2_0_2685)">
<path d="M48.9582 16.6631C48.8973 16.7202 48.8419 16.7774 48.7866 16.8346C46.9432 18.7394 45.4545 20.8211 44.552 22.7371L41.8733 22.0852C41.2203 21.9306 41.0318 21.0669 41.5468 20.6326L45.5928 17.218C46.3733 16.5603 47.4029 16.3029 48.3879 16.5317L48.9582 16.6631ZM61.789 30.3786L61.6619 29.7839C61.6121 29.8469 61.5512 29.9099 61.4958 29.9671C59.6525 31.8719 57.6379 33.4103 55.7837 34.3428L56.4146 37.1113C56.5642 37.786 57.4001 37.9808 57.8204 37.4486L61.1248 33.2677C61.7613 32.4608 62.0104 31.3969 61.789 30.3786ZM44.3254 26.0605L43.711 26.6955C43.3953 27.0216 43.3953 27.5476 43.711 27.8737L50.8128 35.2118C51.1285 35.538 51.6374 35.538 51.9531 35.2118L52.5675 34.5769L44.3254 26.0605ZM56.3368 19.3627C54.8368 19.3627 53.6248 20.621 53.6248 22.1652C53.6248 23.7152 54.8368 24.9676 56.3368 24.9676C57.8312 24.9676 59.0488 23.7152 59.0488 22.1652C59.0488 20.621 57.8312 19.3627 56.3368 19.3627ZM60.3223 28.7544C58.1468 31.0024 55.7115 32.7012 53.7411 33.3642L45.4994 24.8479C46.1415 22.8117 47.7856 20.2952 49.9606 18.0473C55.2242 12.6135 64.6338 11.0519 65.8627 12.3218C67.0916 13.5916 65.5803 23.3148 60.3223 28.7544ZM60.7097 22.1652C60.7097 19.6773 58.7449 17.6465 56.3368 17.6465C53.9235 17.6465 51.9639 19.6768 51.9639 22.1652C51.9639 24.6589 53.9235 26.6839 56.3368 26.6839C58.7444 26.6839 60.7097 24.6593 60.7097 22.1652ZM39.9677 34.4451L43.036 31.274C43.3512 30.9487 43.3512 30.4219 43.036 30.0962C42.7212 29.7705 42.2114 29.7705 41.8962 30.0962L38.8278 33.2673C38.5126 33.5926 38.5126 34.1194 38.8278 34.4451C38.9852 34.6077 39.1919 34.6891 39.3978 34.6891C39.604 34.6891 39.8103 34.6077 39.9677 34.4451ZM40.3694 39.8427L45.8497 34.181C46.1649 33.8557 46.1649 33.3289 45.8497 33.0032C45.5349 32.6775 45.0251 32.6775 44.7099 33.0032L39.2296 38.6653C38.9143 38.9906 38.9143 39.5174 39.2296 39.8431C39.3869 40.0058 39.5936 40.0871 39.7995 40.0871C40.0062 40.0871 40.212 40.0058 40.3694 39.8427ZM45.5937 40.2582L48.6625 37.0871C48.9777 36.7618 48.9773 36.2351 48.6625 35.9093C48.3477 35.5836 47.8379 35.5836 47.5227 35.9093L44.4543 39.0804C44.1391 39.4057 44.1391 39.9325 44.4543 40.2582C44.6108 40.4208 44.8175 40.5022 45.0233 40.5022C45.2296 40.5022 45.4359 40.4208 45.5937 40.2582Z" fill="white"/>
</g>
<defs>
<clipPath id="clip0_0_2685">
<rect width="9.25594" height="9.25594" fill="white" transform="translate(97.3125 19.6591) rotate(45)"/>
</clipPath>
<clipPath id="clip1_0_2685">
<rect width="9.25594" height="9.25594" fill="white" transform="translate(7.54492 19.6591) rotate(45)"/>
</clipPath>
<clipPath id="clip2_0_2685">
<rect width="27.6739" height="28.5964" fill="white" transform="translate(38.5913 11.9058)"/>
</clipPath>
</defs>
</svg>
