<svg width="104" height="52" viewBox="0 0 104 52" fill="none" xmlns="http://www.w3.org/2000/svg">
<g clip-path="url(#clip0_0_2695)">
<path d="M99.5788 23.9377L103.721 26.1949L99.5788 28.4702L97.3125 32.6039L95.0462 28.4702L90.9035 26.1949L95.0462 23.9377L97.3125 19.7859L99.5788 23.9377Z" fill="#FF5D17" stroke="white" stroke-width="0.748118" stroke-miterlimit="10"/>
</g>
<g clip-path="url(#clip1_0_2695)">
<path d="M9.81117 23.9377L13.9539 26.1949L9.81117 28.4702L7.54492 32.6039L5.27867 28.4702L1.13596 26.1949L5.27867 23.9377L7.54492 19.7859L9.81117 23.9377Z" fill="#FF5D17" stroke="white" stroke-width="0.748118" stroke-miterlimit="10"/>
</g>
<circle cx="52.4286" cy="26.204" r="25.204" fill="#3177F2"/>
<path d="M69.9068 17.1586L34.9512 31.2638" stroke="white" stroke-width="2.86139" stroke-linecap="round"/>
<path fill-rule="evenodd" clip-rule="evenodd" d="M40.4846 23.3288C40.4846 16.8991 45.7157 11.668 52.1455 11.668C57.7805 11.668 62.4947 15.6857 63.5742 21.007L58.0118 23.2515C57.9702 20.052 55.3546 17.462 52.1455 17.462C48.9105 17.462 46.2787 20.0938 46.2787 23.3288C46.2787 24.8804 46.8841 26.2932 47.871 27.3435L42.0784 29.6809C41.1176 27.4859 40.4846 25.2941 40.4846 23.3288ZM42.8114 31.2364C45.9142 37.4032 51.0553 43.1736 51.3643 43.5177C51.7816 43.9825 52.5102 43.9816 52.9267 43.5177C53.371 43.0229 63.8064 31.3084 63.8064 23.3288C63.8064 23.1415 63.8019 22.9552 63.7931 22.77L57.6961 25.2302C56.9045 27.5349 54.7153 29.1957 52.1455 29.1957C51.1824 29.1957 50.2728 28.9625 49.4702 28.5495L42.8114 31.2364Z" fill="white"/>
<defs>
<clipPath id="clip0_0_2695">
<rect width="9.25594" height="9.25594" fill="white" transform="translate(97.3125 19.6591) rotate(45)"/>
</clipPath>
<clipPath id="clip1_0_2695">
<rect width="9.25594" height="9.25594" fill="white" transform="translate(7.54492 19.6591) rotate(45)"/>
</clipPath>
</defs>
</svg>
