<svg width="104" height="52" viewBox="0 0 104 52" fill="none" xmlns="http://www.w3.org/2000/svg">
<g clip-path="url(#clip0_0_2710)">
<path d="M99.5788 22.5141L103.721 24.7713L99.5788 27.0466L97.3125 31.1803L95.0462 27.0466L90.9035 24.7713L95.0462 22.5141L97.3125 18.3624L99.5788 22.5141Z" fill="#FF5D17" stroke="white" stroke-width="0.748118" stroke-miterlimit="10"/>
</g>
<g clip-path="url(#clip1_0_2710)">
<path d="M9.81117 22.5141L13.9539 24.7713L9.81117 27.0466L7.54492 31.1803L5.27867 27.0466L1.13596 24.7713L5.27867 22.5141L7.54492 18.3624L9.81117 22.5141Z" fill="#FF5D17" stroke="white" stroke-width="0.748118" stroke-miterlimit="10"/>
</g>
<circle cx="52.4286" cy="26.204" r="25.204" fill="#3177F2"/>
<path d="M44.3809 22.1306H57.1228V17.4935C57.1228 14.9365 55.017 12.8564 52.4284 12.8564C49.8398 12.8564 47.734 14.9365 47.734 17.4936V20.1434C47.734 20.509 47.4336 20.8058 47.0634 20.8058H44.3809C44.0108 20.8058 43.7103 20.509 43.7103 20.1434V17.4936C43.7103 12.7452 47.6214 8.88177 52.4284 8.88177C57.2355 8.88177 61.1465 12.7452 61.1465 17.4936V22.1983C62.6755 22.5056 63.829 23.8451 63.829 25.4429V37.3669C63.829 39.1926 62.3255 40.6791 60.4759 40.6791H44.3809C42.5313 40.6791 41.0278 39.1926 41.0278 37.3669V25.4429C41.0278 23.6172 42.5313 22.1306 44.3809 22.1306ZM50.9409 32.3721L50.4232 35.948C50.395 36.1387 50.4527 36.3308 50.5801 36.4753C50.7076 36.6197 50.8927 36.7045 51.0871 36.7045H53.7696C53.9641 36.7045 54.1492 36.621 54.2766 36.4766C54.4041 36.3323 54.4617 36.1388 54.4336 35.9493L53.9158 32.3734C55.0371 31.8196 55.7815 30.6762 55.7815 29.4176C55.7815 27.5919 54.2779 26.1054 52.4284 26.1054C50.5789 26.1054 49.0753 27.5919 49.0753 29.4176C49.0753 30.6762 49.8197 31.8196 50.9409 32.3721Z" fill="white"/>
<defs>
<clipPath id="clip0_0_2710">
<rect width="9.25594" height="9.25594" fill="white" transform="translate(97.3125 18.2355) rotate(45)"/>
</clipPath>
<clipPath id="clip1_0_2710">
<rect width="9.25594" height="9.25594" fill="white" transform="translate(7.54492 18.2355) rotate(45)"/>
</clipPath>
</defs>
</svg>
